PathFileType	4	(X/Y/Z)	Kaydara																																																																																																																									
DataRate	CameraRate	NumFrames	NumMarkers	Units	OrigDataRate	OrigDataStartFrame	OrigNumFrames																																																																																																																					
30	30	6	41	mm	30	1	152																																																																																																																					
Frame#	Time	EMLA_LFHD			EMLA_RFHD			EMLA_LBHD			EMLA_RBHD			EMLA_LFTShould			EMLA_RFTShould			EMLA_LRRShould			EMLA_RRRShould			EMLA_T10			EMLA_STRN			EMLA_TRUN			EMLA_LSHO			EMLA_LUPA			EMLA_LELB			EMLA_LFRM			EMLA_LWRA			EMLA_LWRB			EMLA_LFIN			EMLA_RSHO			EMLA_RUPA			EMLA_RELB			EMLA_RFRM			EMLA_RWRA			EMLA_RWRB			EMLA_RFIN			EMLA_LFWT			EMLA_RFWT			EMLA_LBWT			EMLA_RBWT			EMLA_LTHI			EMLA_LKNE			EMLA_LSHN			EMLA_LANK			EMLA_LHEE			EMLA_LTOE			EMLA_RTHI			EMLA_RKNE			EMLA_RSHN			EMLA_RANK			EMLA_RHEE			EMLA_RTOE		
		X1	Y1	Z1	X2	Y2	Z2	X3	Y3	Z3	X4	Y4	Z4	X5	Y5	Z5	X6	Y6	Z6	X7	Y7	Z7	X8	Y8	Z8	X9	Y9	Z9	X10	Y10	Z10	X11	Y11	Z11	X12	Y12	Z12	X13	Y13	Z13	X14	Y14	Z14	X15	Y15	Z15	X16	Y16	Z16	X17	Y17	Z17	X18	Y18	Z18	X19	Y19	Z19	X20	Y20	Z20	X21	Y21	Z21	X22	Y22	Z22	X23	Y23	Z23	X24	Y24	Z24	X25	Y25	Z25	X26	Y26	Z26	X27	Y27	Z27	X28	Y28	Z28	X29	Y29	Z29	X30	Y30	Z30	X31	Y31	Z31	X32	Y32	Z32	X33	Y33	Z33	X34	Y34	Z34	X35	Y35	Z35	X36	Y36	Z36	X37	Y37	Z37	X38	Y38	Z38	X39	Y39	Z39	X40	Y40	Z40	X41	Y41	Z41
																																																																																																																												
1	0.01	271.55191	1645.47012	-1972.53555	99.50291	1649.87534	-1971.57928	284.5402	1609.75708	-2120.43243	89.91006	1615.62119	-2121.91528	269.75449	1403.32169	-2006.54587	119.6793	1391.69205	-1999.72595	256.14878	1451.41449	-2155.45654	98.12524	1439.94293	-2145.56366	190.10218	1274.93248	-2197.20551	196.52256	1332.73834	-1964.37592	193.12178	1230.14732	-1942.19101	392.60235	1425.76965	-2065.10834	448.63533	1242.73537	-2077.97363	466.16924	1099.70901	-2076.56097	465.87646	963.52318	-2062.87201	386.09734	825.61722	-1972.11212	440.00355	802.23587	-2032.78076	436.71612	772.89139	-1969.1423	-7.17118	1418.50983	-2056.68045	-61.53592	1222.56859	-2045.78094	-76.52425	1078.60268	-2057.23709	-74.7926	975.6118	-2054.19968	7.50319	827.16156	-1945.39886	-43.09924	800.34943	-2008.246	-48.85945	773.17314	-1949.58282	296.6744	992.35245	-1967.32025	59.83455	980.04051	-1978.71765	272.92103	1015.59021	-2166.04813	97.71135	1016.76575	-2159.71405	318.97243	730.37506	-2159.06784	324.97097	524.72816	-2121.59576	298.88626	342.58003	-2113.43796	300.23281	166.52042	-2188.03787	234.78924	85.57498	-2246.62064	269.50073	74.57811	-2048.93951	67.53752	713.59802	-2173.35327	33.93918	512.99507	-2118.35236	75.13671	290.55882	-2113.33176	39.1623	130.8499	-2195.40649	96.31004	77.9897	-2247.1579	56.57226	72.05611	-2047.23114
2	0.043	271.70347	1645.46799	-1971.5004	99.69419	1649.70428	-1970.85785	284.97536	1609.65332	-2119.39926	90.32238	1615.38574	-2121.20575	270.09214	1402.76505	-2005.53238	120.19723	1391.24695	-1998.76648	256.78226	1451.33606	-2154.48959	98.69388	1439.86282	-2144.84726	190.76511	1274.804	-2196.38	196.89436	1332.37244	-1963.59543	193.32575	1229.80011	-1941.41373	393.07384	1425.56931	-2064.00528	448.9621	1242.48596	-2076.89301	466.50806	1099.41414	-2075.46463	466.07136	963.20419	-2061.74469	385.9639	825.45929	-1971.15295	439.91688	802.00424	-2031.5834	436.44764	772.66609	-1967.86163	-6.72365	1418.24387	-2056.08765	-61.06161	1222.1817	-2045.52902	-76.04762	1078.32306	-2057.12875	-74.27738	975.34622	-2054.15039	7.98055	826.93932	-1945.15259	-42.51307	800.05775	-2008.23257	-48.36693	772.87979	-1949.57047	296.61194	992.50748	-1966.48819	60.19241	979.91684	-1978.03772	273.27517	1015.38467	-2165.27771	98.1158	1016.58813	-2158.94089	319.41284	730.30022	-2158.39706	325.25208	524.64718	-2121.0733	298.94835	342.45422	-2113.08167	300.31183	166.50558	-2187.84653	234.81501	85.64881	-2246.57242	269.49806	74.56778	-2048.92365	67.69408	713.60847	-2172.91092	34.14463	512.95135	-2117.74887	75.24165	290.45263	-2113.00995	39.2244	130.84618	-2195.32272	96.34341	77.98902	-2247.14645	56.60138	72.04171	-2047.20337
3	0.077	271.94651	1645.45563	-1970.49911	100.00746	1649.52301	-1970.05875	285.40331	1609.55383	-2118.29926	90.80928	1615.17273	-2120.42114	270.46698	1402.5975	-2004.73328	120.12009	1391.13358	-1998.44345	257.31798	1451.29868	-2153.60382	99.20367	1439.80164	-2144.06937	191.25654	1274.72504	-2195.51224	196.98313	1332.19269	-1963.08975	193.68259	1229.56688	-1940.74097	393.46767	1425.39047	-2063.03726	449.38568	1242.29027	-2075.69855	466.91433	1099.189	-2074.38828	466.2624	962.98843	-2060.63904	385.69374	825.44914	-1969.98306	439.73862	801.85104	-2030.43777	436.08471	772.52548	-1966.68747	-6.26128	1418.07922	-2055.43304	-60.78905	1222.3085	-2045.41794	-75.67698	1078.25996	-2057.00378	-73.84368	975.19913	-2054.14093	8.15587	826.66489	-1945.38773	-42.14961	799.8848	-2008.49594	-48.05398	772.62383	-1949.89334	297.04815	992.07405	-1965.7132	60.3784	979.73938	-1977.35657	273.80114	1015.41023	-2164.37408	98.56759	1016.65932	-2158.16696	319.91438	730.25749	-2157.83707	325.42885	524.59595	-2120.75653	299.04449	342.43965	-2112.95868	300.34307	166.52849	-2187.77069	234.87322	85.68324	-2246.60034	269.48008	74.57006	-2048.91617	67.86865	713.74146	-2172.7597	34.2661	512.93709	-2117.45178	75.29276	290.3628	-2112.88437	39.19689	130.8774	-2195.30319	96.33341	78.01743	-2247.15393	56.56729	72.05354	-2047.18796
4	0.11	272.27642	1645.30182	-1969.5694	100.3636	1649.37164	-1969.31	285.87545	1609.58603	-2117.32956	91.2662	1615.18005	-2119.68262	270.85062	1402.46155	-2003.96545	120.74643	1391.12869	-1997.60101	257.71687	1450.96497	-2152.82913	99.74813	1439.71161	-2143.38104	191.71238	1274.53354	-2194.67484	196.96886	1332.16095	-1962.5647	193.93047	1229.51859	-1940.08255	393.93246	1425.22827	-2062.28668	449.87274	1242.08481	-2075.00763	467.24251	1098.95554	-2073.44727	466.40949	962.73193	-2059.59869	385.51353	825.42534	-1968.94745	439.58511	801.717	-2029.25934	435.83302	772.47971	-1965.57556	-5.80399	1417.98553	-2054.75662	-60.36779	1222.30362	-2045.19501	-75.2162	1078.12851	-2056.71906	-73.5261	975.17555	-2054.23096	8.21276	826.28647	-1945.82596	-42.00114	799.70291	-2008.96652	-47.95995	772.30042	-1950.48752	296.91015	991.75163	-1964.7757	60.61357	979.61548	-1976.70334	274.26981	1015.46257	-2163.50739	99.07343	1016.68152	-2157.46704	320.14709	730.28496	-2157.33124	325.55279	524.51519	-2120.51834	299.13757	342.39281	-2112.92267	300.42744	166.49298	-2187.78687	234.91077	85.65793	-2246.62888	269.47134	74.55103	-2048.95065	68.14608	713.8829	-2172.58209	34.48265	512.92534	-2117.33154	75.39252	290.36007	-2112.81738	39.23311	130.89659	-2195.27985	96.36889	78.03452	-2247.13776	56.56238	72.04856	-2047.1817
5	0.143	272.54578	1645.18341	-1968.60428	100.68801	1649.24164	-1968.56674	286.89234	1609.25919	-2115.82138	91.7384	1615.16251	-2118.99597	271.17792	1402.31384	-2003.29361	121.57399	1391.17371	-1996.6835	258.24322	1450.74844	-2152.04315	100.24685	1439.57565	-2142.72995	192.22475	1274.31358	-2193.81927	197.23633	1332.01126	-1961.95328	194.24829	1229.34547	-1939.33517	394.31808	1424.91104	-2061.29532	450.13615	1241.87408	-2074.12491	467.56527	1098.67332	-2072.70981	466.57345	962.48375	-2058.73505	385.38639	825.44846	-1967.8801	439.4173	801.54839	-2028.14728	435.67169	772.44064	-1964.41879	-5.3621	1417.86163	-2054.23569	-59.82155	1221.89972	-2044.44672	-74.82334	1078.03711	-2056.58401	-73.25622	975.15923	-2054.32861	8.09614	825.84969	-1946.25153	-42.14161	799.51088	-2009.55704	-48.20297	771.85745	-1951.17065	297.26725	991.42303	-1963.99292	60.83929	979.33281	-1976.30539	274.65233	1015.40886	-2162.71545	99.50163	1016.63727	-2156.85379	320.43964	730.26535	-2156.7923	325.7198	524.39812	-2120.121	299.22918	342.29942	-2112.77847	300.43186	166.42416	-2187.79388	235.00158	85.59721	-2246.67328	269.46558	74.57811	-2049.00589	68.45727	713.96126	-2172.29553	34.68282	512.90619	-2117.38113	75.4966	290.34389	-2112.82745	39.32294	130.9386	-2195.32089	96.4186	78.02022	-2247.13074	56.54006	72.03718	-2047.19604
6	0.177	272.89232	1645.03754	-1967.66571	101.07134	1649.08051	-1967.80106	287.42466	1609.11606	-2114.96841	92.24814	1614.98901	-2118.18817	271.70879	1402.06329	-2002.49527	121.35901	1390.7782	-1996.38733	258.75698	1450.66528	-2151.10641	100.77762	1439.54453	-2141.98257	192.7578	1274.27322	-2193.05954	198.30139	1331.62781	-1960.83527	194.45171	1229.11385	-1938.50143	394.8138	1424.76822	-2060.57434	450.51315	1241.60843	-2073.51303	467.89379	1098.4536	-2071.98181	466.73809	962.19688	-2057.84271	385.71236	825.65781	-1966.58798	439.31656	801.33949	-2027.0723	435.60947	772.35588	-1963.34229	-4.96117	1417.71622	-2053.64578	-59.364	1221.72249	-2043.99185	-74.50196	1078.00484	-2056.45203	-73.0863	975.14725	-2054.44946	7.96671	825.40527	-1946.61026	-42.43958	799.3306	-2010.13763	-48.66697	771.52679	-1951.83136	297.42468	991.31691	-1963.14667	61.08286	979.19312	-1975.82794	275.07572	1015.33813	-2161.95694	99.88653	1016.63269	-2156.29776	320.90618	730.25688	-2156.17889	325.94318	524.33315	-2119.83154	299.32793	342.26395	-2112.53937	300.56486	166.49471	-2187.66312	235.04356	85.68088	-2246.62354	269.48421	74.60619	-2048.99277	68.80605	713.93051	-2171.98105	34.89185	512.87281	-2117.21298	75.53426	290.34178	-2112.75635	39.3774	130.92402	-2195.3096	96.46986	77.97892	-2247.11151	56.53761	72.039	-2047.20856
